P3
50 49
255
254
254
254
254
254
254
254
254
254
254
254
254
254
254
254
254
254
254
254
254
254
254
254
254
255
247
249
255
251
249
253
255
252
246
255
252
245
255
254
248
255
255
253
254
255
255
252
255
251
255
255
251
254
255
252
253
255
254
251
254
255
249
254
255
247
255
255
249
255
254
250
255
255
253
254
255
253
254
255
251
254
255
250
254
255
250
254
255
253
254
251
255
254
248
255
254
253
254
254
254
254
254
254
254
254
254
254
254
254
254
254
254
254
254
254
254
254
254
254
254
254
254
254
254
254
254
254
254
254
254
254
254
255
255
255
255
255
255
255
255
255
255
255
255
255
255
255
244
244
244
254
254
254
254
254
254
254
254
254
254
254
254
254
254
254
254
254
254
254
254
254
254
254
254
253
253
250
253
254
251
252
255
252
252
255
252
253
254
253
254
253
253
255
251
253
255
249
253
254
252
255
244
255
255
232
255
254
239
255
254
253
254
254
255
250
254
253
254
255
241
255
255
251
255
254
254
254
254
255
252
254
255
252
254
255
252
254
255
253
254
252
255
254
250
255
254
253
254
254
254
254
254
254
254
254
254
254
254
254
254
254
254
254
254
254
254
254
254
254
254
254
254
254
254
254
254
254
254
254
254
254
254
255
255
255
255
255
255
255
255
255
255
255
255
255
255
255
244
244
244
254
254
254
254
254
254
254
254
254
254
254
254
254
254
254
254
254
254
254
254
254
255
254
254
243
255
253
247
255
252
252
254
252
255
253
251
255
251
250
255
251
249
255
251
249
255
253
248
255
243
251
252
252
253
234
255
253
235
255
252
252
253
253
255
249
253
253
254
253
241
255
252
248
255
254
250
255
254
253
254
254
255
253
254
255
253
254
254
254
254
254
254
254
252
255
254
254
254
254
254
254
254
254
254
254
254
254
254
254
254
254
254
254
254
254
254
254
254
254
254
254
254
254
254
254
254
254
254
254
254
254
254
255
255
255
255
255
255
255
255
255
255
255
255
255
255
255
244
244
244
254
254
254
254
254
254
254
254
254
254
254
254
254
254
254
254
254
254
254
254
254
255
254
254
239
255
254
246
255
254
253
254
253
255
253
252
254
252
249
255
254
250
249
255
247
245
255
247
255
239
249
255
245
249
255
252
252
253
254
254
255
252
254
254
250
253
255
250
249
255
251
250
248
255
254
248
255
254
250
255
253
253
254
254
254
254
254
254
254
254
254
254
254
254
254
254
254
254
254
254
254
254
254
254
254
254
254
254
254
254
254
254
254
254
254
254
254
254
254
254
254
254
254
254
254
254
254
254
254
254
254
254
255
255
255
255
255
255
255
255
255
255
255
255
255
255
255
244
244
244
254
254
254
254
254
254
254
254
254
254
254
254
254
254
254
254
254
254
254
254
254
255
254
254
246
254
254
251
254
254
255
254
255
254
253
253
253
253
252
245
252
248
244
255
253
238
255
251
248
252
246
255
249
249
255
246
254
255
251
255
243
254
255
240
255
255
248
253
248
255
248
248
252
253
253
251
253
252
252
255
254
253
255
255
253
255
254
254
254
254
255
253
254
255
253
254
255
255
255
255
255
255
255
255
255
255
255
255
254
254
254
254
254
254
254
254
254
254
254
254
254
254
254
254
254
254
254
254
254
254
254
254
255
255
255
255
255
255
255
255
255
255
255
255
255
255
255
244
244
244
254
254
254
254
254
254
254
254
254
254
254
254
254
254
254
254
254
254
254
254
254
254
254
254
255
253
254
254
253
254
252
251
253
252
250
253
252
245
252
255
251
255
252
249
255
254
247
254
225
255
247
240
255
254
249
255
255
246
251
255
247
255
255
245
255
255
241
255
249
252
255
250
255
249
252
255
254
255
251
249
250
253
253
253
253
255
254
254
254
254
255
253
254
255
253
254
255
255
255
255
255
255
255
255
255
255
255
255
254
254
254
254
254
254
254
254
254
254
254
254
254
254
254
254
254
254
254
254
254
254
254
254
255
255
255
255
255
255
255
255
255
255
255
255
255
255
255
244
244
244
254
254
254
254
254
254
254
254
254
254
254
254
254
254
254
254
254
254
254
254
254
254
254
254
255
254
254
253
251
253
253
251
255
255
251
255
255
242
255
234
182
217
229
139
191
249
178
233
248
251
249
234
254
249
235
255
255
255
248
255
250
200
234
251
188
228
255
238
251
241
252
248
253
246
253
255
242
248
255
250
254
253
250
252
254
254
254
253
255
254
254
254
254
255
253
254
255
255
255
255
255
255
255
255
255
255
255
255
254
254
254
254
254
254
254
254
254
254
254
254
254
254
254
254
254
254
254
254
254
254
254
254
255
255
255
255
255
255
255
255
255
255
255
255
255
255
255
244
244
244
255
254
254
254
255
254
254
255
254
254
254
254
254
254
254
254
255
254
254
255
254
254
254
254
252
255
251
255
255
255
230
238
236
196
201
204
253
242
255
203
123
171
187
35
110
206
20
113
227
157
178
255
255
255
250
255
255
255
221
254
220
38
122
232
18
102
214
108
150
243
252
248
225
215
216
185
184
180
255
255
255
255
248
250
255
254
255
253
255
254
253
255
255
255
255
255
255
255
255
255
255
255
255
255
255
255
255
255
254
254
254
255
254
254
255
254
254
254
255
254
254
254
254
254
254
254
254
254
254
254
254
254
255
255
255
255
255
255
255
255
255
255
255
255
255
255
255
244
244
244
236
255
255
255
245
255
255
241
253
253
253
250
252
253
249
255
244
252
255
236
251
255
254
255
246
142
230
210
193
202
239
135
205
239
1
139
234
17
115
252
42
181
254
0
176
215
8
141
208
1
105
236
140
197
255
242
255
240
128
181
243
5
115
255
1
132
231
2
112
239
26
121
245
72
193
252
0
144
255
87
189
240
247
254
218
255
249
251
251
251
254
215
247
246
175
230
240
239
252
229
255
255
255
241
255
255
245
255
248
255
255
237
255
255
235
255
255
255
237
255
250
251
254
250
255
254
250
255
254
251
255
254
251
255
254
253
255
254
253
255
254
253
255
254
255
255
255
244
244
244
255
251
255
254
251
255
252
252
253
251
255
250
242
255
250
238
255
253
245
255
255
255
255
255
215
75
152
174
14
95
162
0
79
201
9
104
228
0
114
206
0
115
204
6
128
255
7
155
242
7
137
189
25
110
205
87
139
194
32
100
235
5
113
244
0
116
229
4
108
193
5
79
178
0
101
255
9
145
231
6
125
247
174
221
252
255
255
251
187
221
218
58
137
192
14
111
245
111
168
255
254
255
255
248
254
248
248
248
250
255
253
255
252
251
242
255
252
253
253
252
251
254
254
251
255
254
251
255
254
251
255
254
252
255
254
253
255
254
253
255
254
253
255
254
255
255
255
244
244
244
255
243
255
242
255
255
234
255
253
252
253
251
250
251
251
240
254
254
241
239
246
223
181
203
247
90
167
251
0
143
207
0
84
172
4
66
236
4
133
209
7
114
166
9
78
239
0
140
255
2
145
248
10
135
218
3
107
195
6
89
230
6
117
241
0
113
224
3
95
186
7
72
174
4
88
232
14
130
253
0
135
233
34
144
255
203
255
224
51
132
245
0
109
236
3
112
243
35
108
255
247
254
251
255
250
241
254
249
237
255
248
255
249
246
251
254
245
243
255
246
252
255
253
253
255
254
253
255
254
253
255
254
253
255
254
253
255
254
253
255
254
253
255
254
255
255
255
244
244
244
254
249
255
239
255
255
235
255
253
255
251
253
255
237
255
255
210
243
251
171
222
209
42
115
233
0
103
254
2
136
236
3
110
172
0
67
183
3
96
244
17
120
208
0
74
177
10
98
235
7
133
255
1
140
252
1
126
230
2
121
225
13
121
238
0
106
223
0
84
177
1
59
148
0
52
232
25
116
255
1
124
239
0
123
237
57
154
223
4
94
255
0
99
245
3
101
198
36
94
254
255
255
251
249
253
251
252
254
235
255
254
254
251
252
255
251
249
254
255
249
254
254
253
254
254
254
254
254
254
254
254
254
253
255
254
253
255
254
253
255
254
251
255
254
255
255
255
244
244
244
246
254
252
248
252
251
249
255
255
253
255
255
214
160
185
185
32
97
201
6
94
214
19
107
255
1
151
232
15
125
242
7
127
206
1
106
145
0
58
214
0
83
243
1
111
148
0
55
208
9
123
253
6
142
255
0
145
241
8
138
228
14
124
233
1
99
225
0
82
178
1
55
114
0
10
237
22
95
246
0
101
216
0
94
220
0
91
215
0
77
216
3
75
223
0
79
213
54
119
255
247
255
250
200
234
233
161
210
244
191
225
255
227
251
255
248
255
249
251
252
254
252
253
254
251
252
255
254
255
255
254
255
254
254
254
253
255
254
251
255
254
251
255
254
255
255
255
244
244
244
249
255
252
255
249
251
254
253
253
246
255
255
253
208
231
157
11
79
169
1
81
126
0
69
206
4
152
235
16
119
247
1
127
232
4
133
165
11
62
153
0
54
218
6
116
209
3
65
159
1
71
230
15
131
240
1
138
245
7
146
240
7
126
238
2
99
222
0
82
182
2
61
112
2
6
217
9
71
210
5
79
189
2
72
217
0
73
194
4
59
174
14
59
213
4
70
252
14
107
244
102
176
207
33
119
221
25
122
229
17
114
233
78
155
234
219
236
242
255
255
253
251
254
255
251
254
255
249
251
255
255
255
255
253
254
253
255
254
251
255
254
250
255
254
255
255
255
244
244
244
255
252
250
254
252
252
252
252
251
253
242
250
175
93
135
166
15
90
152
0
80
123
1
72
156
0
108
228
0
117
245
0
131
234
0
117
203
9
88
134
1
53
153
2
67
231
3
86
169
3
51
181
5
84
227
17
144
248
3
143
255
0
126
243
4
102
214
6
86
184
1
72
130
2
28
174
9
59
183
10
68
186
7
69
190
0
55
181
6
51
178
5
56
215
3
76
250
1
89
241
0
95
233
3
102
221
1
97
255
5
118
226
34
119
237
222
236
255
246
252
254
243
249
255
251
255
255
252
255
252
248
250
255
254
254
253
255
254
251
255
254
250
255
254
255
255
255
244
244
244
255
246
250
241
255
250
247
255
255
242
171
204
191
26
97
196
2
93
206
1
105
240
16
134
243
4
139
237
3
156
238
2
120
229
0
95
219
1
107
176
12
85
138
0
38
197
3
89
213
10
63
161
0
62
203
14
129
252
0
145
255
0
125
245
9
105
201
12
90
179
0
78
151
0
51
133
10
56
171
9
71
198
5
71
168
5
51
178
6
51
207
0
60
216
2
83
202
19
85
229
1
79
230
0
82
213
5
95
248
5
104
248
120
178
209
211
209
230
160
189
232
215
223
255
250
253
253
245
249
255
252
254
255
253
254
253
255
254
250
255
254
250
255
254
255
255
255
244
244
244
248
254
254
250
252
249
254
243
252
239
155
198
201
21
103
212
7
102
202
3
91
180
1
72
229
0
94
238
6
124
236
3
127
225
0
120
216
0
120
200
10
104
167
8
70
143
0
48
208
10
86
195
6
73
176
0
66
220
26
125
237
6
135
253
2
138
237
3
109
181
0
69
146
5
50
138
2
34
178
3
54
203
4
73
185
2
64
179
1
58
200
0
61
216
1
73
196
6
66
202
0
65
211
0
71
215
3
81
228
11
95
238
50
127
197
25
95
207
12
87
216
24
94
254
155
202
254
244
255
250
253
254
250
255
255
254
252
255
247
255
255
234
255
255
254
255
255
244
244
244
255
239
253
250
251
250
237
255
252
253
241
248
210
108
164
168
2
77
183
0
73
171
0
57
131
1
35
160
0
61
204
8
106
224
4
126
215
0
120
210
1
109
208
11
98
188
2
68
175
0
66
218
14
96
174
2
58
189
8
93
240
15
137
255
0
131
247
1
111
188
7
71
130
13
43
122
1
23
167
6
50
188
7
68
181
5
69
171
0
57
194
1
68
206
0
67
190
1
60
191
0
62
197
0
68
205
2
74
199
0
69
202
1
79
204
8
86
204
25
100
203
152
178
254
255
255
245
255
255
231
242
240
255
251
255
255
245
254
255
250
254
250
255
254
255
255
255
244
244
244
248
247
252
245
255
253
222
244
240
195
189
198
214
144
189
180
39
115
162
2
73
162
3
64
124
16
48
123
2
38
136
0
43
169
4
70
201
7
94
215
5
104
216
0
109
224
0
117
189
4
86
196
2
76
212
13
97
171
0
71
220
6
113
254
2
124
245
0
98
189
8
66
119
17
37
113
0
20
151
4
45
180
15
71
171
5
66
166
0
60
187
6
72
188
0
63
176
1
57
180
2
60
184
1
63
187
0
66
190
5
71
187
0
72
206
23
93
252
124
193
255
221
243
249
237
253
242
253
255
247
255
255
241
255
253
243
253
250
253
253
247
255
249
247
255
255
255
244
244
244
246
250
250
222
170
186
168
39
79
160
10
57
172
3
81
194
11
104
212
3
95
229
2
82
209
1
106
186
1
74
153
2
36
130
2
10
138
2
22
178
8
71
216
6
119
229
0
144
220
19
120
213
5
96
211
6
94
203
14
101
196
0
79
250
9
107
251
19
101
203
23
76
162
36
59
126
0
20
173
16
60
181
12
68
169
0
60
173
3
65
178
5
68
171
0
59
172
0
56
177
3
60
180
2
63
181
0
62
186
5
68
192
6
75
221
35
105
224
42
118
239
32
122
244
48
139
248
94
169
253
202
238
247
255
255
226
255
254
242
255
252
255
251
248
255
255
255
244
244
244
247
244
246
168
94
114
174
21
68
173
0
63
169
5
85
184
10
102
227
5
106
253
1
94
255
0
128
246
1
106
213
5
74
179
7
44
150
0
27
142
0
33
166
1
70
206
18
117
223
16
122
240
10
122
215
2
97
199
12
93
211
22
92
235
18
88
221
14
77
197
26
74
185
19
55
188
17
58
196
18
68
197
11
71
184
3
61
186
4
67
173
2
61
172
8
64
180
3
60
180
0
62
183
0
61
188
2
66
186
1
65
189
0
66
201
6
76
218
16
91
249
4
116
255
0
117
255
0
118
237
24
128
253
186
237
254
243
255
245
250
254
251
248
252
255
255
255
244
244
244
228
255
252
242
250
245
209
179
186
172
91
133
151
10
82
172
6
95
173
7
89
179
17
94
231
11
90
240
12
108
250
3
120
244
2
121
231
1
107
199
0
74
166
2
42
149
5
22
212
6
109
247
10
128
233
7
114
205
23
98
188
23
71
205
21
66
198
17
64
166
12
58
181
8
52
178
5
50
183
10
60
188
4
63
202
8
72
199
8
69
169
2
48
169
6
56
179
2
60
180
0
60
181
0
60
180
0
60
183
1
58
188
0
61
198
0
67
209
2
77
227
2
103
255
2
122
255
3
128
227
11
121
211
87
162
255
241
255
254
252
255
254
252
255
255
255
255
244
244
244
252
252
254
251
252
248
255
243
249
248
170
218
240
25
126
250
3
126
218
5
110
160
7
80
158
1
41
184
2
69
227
0
110
251
0
137
252
0
138
248
7
116
218
9
77
186
4
41
202
0
93
232
0
110
235
10
117
186
14
80
161
18
49
177
22
47
168
15
51
147
14
59
138
11
45
131
9
44
138
12
50
165
15
63
189
10
65
195
7
61
190
12
59
166
5
46
167
0
52
171
0
57
171
0
57
168
0
54
174
0
56
181
0
56
186
0
56
201
1
66
235
1
90
232
0
93
206
0
90
189
44
120
253
220
252
252
244
255
247
254
254
248
253
251
255
255
254
244
244
244
255
245
254
253
254
250
242
252
245
232
200
221
196
89
154
214
37
135
234
21
127
245
23
122
236
23
133
210
9
100
186
3
66
177
2
51
200
0
72
224
4
100
248
4
129
251
0
139
223
8
108
234
0
111
218
1
103
168
5
66
166
35
56
158
22
36
146
8
39
98
1
29
64
4
19
47
0
6
76
9
29
113
5
38
167
11
58
201
17
67
195
16
59
166
4
40
165
6
58
159
2
55
159
3
55
159
3
54
165
2
55
173
3
58
184
3
60
209
24
81
214
60
101
243
91
141
246
101
160
245
105
166
203
98
146
255
234
254
249
247
244
245
255
244
255
255
255
244
244
244
242
254
255
245
255
252
239
252
251
246
255
255
255
255
255
255
244
255
252
207
241
255
179
217
231
156
201
254
132
205
239
35
136
223
9
98
221
3
81
239
0
96
254
0
130
251
0
158
236
3
115
233
0
107
197
6
88
145
7
55
167
35
65
165
14
44
152
37
59
60
16
25
26
7
9
24
7
10
26
3
6
81
15
34
136
18
51
166
7
52
216
37
87
182
4
52
174
12
59
160
4
48
154
2
45
154
3
47
166
8
58
170
3
58
177
1
60
189
4
69
194
25
71
202
32
88
242
51
134
255
76
179
238
78
167
238
170
210
255
255
255
250
245
237
255
254
255
242
244
245
244
255
254
253
254
254
255
250
254
254
250
253
253
252
251
251
255
253
252
255
253
254
251
250
253
243
255
243
97
170
248
4
123
246
5
117
231
18
104
242
16
101
239
3
104
226
4
117
226
1
108
222
0
97
191
4
79
141
0
48
148
10
47
179
11
55
166
27
60
75
10
18
33
0
1
64
29
36
43
3
11
58
0
7
133
15
51
178
18
68
203
15
74
182
0
50
161
1
41
154
0
39
155
1
45
165
5
54
168
5
59
175
2
62
181
0
64
187
0
65
204
0
53
188
3
69
193
3
87
235
0
107
252
6
122
219
37
125
237
158
197
255
247
255
255
252
255
242
244
245
255
253
254
255
251
254
255
252
254
252
255
254
245
255
254
244
253
250
255
249
252
248
246
246
221
123
182
205
22
102
235
4
89
214
7
84
173
7
74
169
1
66
194
2
71
202
1
66
189
2
91
215
1
91
219
0
85
184
6
69
165
8
57
177
10
59
201
34
82
167
22
63
132
33
62
100
16
37
71
0
7
144
34
66
147
6
46
178
9
55
206
14
73
224
29
91
176
8
60
165
2
52
160
1
48
161
3
49
163
0
49
171
0
52
179
0
57
185
1
59
182
6
62
192
10
71
213
5
84
249
0
101
254
4
117
255
2
116
202
16
103
236
147
202
255
253
255
243
243
247
255
250
254
255
250
254
254
254
254
246
255
254
246
252
252
255
253
255
244
200
222
157
70
102
127
0
76
144
0
50
151
0
27
141
0
30
153
0
64
213
9
113
244
11
106
245
6
79
238
8
106
245
2
104
247
0
97
230
9
92
193
12
75
172
9
64
155
1
48
166
14
62
184
36
81
154
16
59
149
17
57
169
26
70
206
41
92
196
11
70
206
16
76
213
26
86
170
2
58
167
1
56
169
1
57
172
2
56
179
1
59
181
1
57
186
1
58
185
3
57
172
7
58
201
1
62
211
0
64
201
4
75
197
5
80
232
56
144
246
160
218
244
219
245
255
248
255
246
241
248
255
252
252
254
253
253
250
255
254
249
255
255
254
251
255
255
218
238
150
36
79
164
7
63
148
0
64
119
4
36
102
9
18
120
0
33
205
3
110
253
1
147
255
0
130
255
0
107
254
0
108
252
0
106
251
3
103
245
5
99
230
9
92
199
7
78
168
6
62
163
17
65
188
8
65
180
10
63
172
11
61
174
11
61
199
23
79
205
23
80
224
44
100
175
5
58
165
0
55
167
0
55
170
0
54
175
0
55
181
0
55
191
3
61
194
5
63
194
1
60
207
0
66
188
0
49
163
2
50
146
11
56
191
17
84
234
18
113
219
69
159
253
214
255
255
244
254
246
237
246
252
255
252
252
255
252
249
255
254
252
254
255
255
250
255
187
108
143
158
8
68
188
0
67
180
0
47
131
5
36
101
13
29
133
1
49
233
14
130
248
2
142
250
3
147
244
5
135
250
0
107
228
0
101
216
2
97
240
1
98
255
2
104
233
2
85
206
9
76
193
6
65
211
9
72
190
1
59
182
5
60
199
23
77
200
18
75
218
35
91
187
14
69
168
7
57
173
5
59
180
5
63
185
5
64
187
2
62
191
1
63
189
0
57
189
0
59
196
2
64
212
0
77
209
5
81
186
7
71
185
6
71
232
3
86
252
4
109
255
0
120
250
27
142
231
203
225
241
230
242
251
255
250
252
255
252
251
255
255
253
254
255
255
251
255
174
102
139
169
34
92
178
2
73
182
0
47
141
5
50
130
2
55
158
1
59
206
9
95
197
9
104
184
4
101
201
1
114
229
3
107
218
10
111
231
8
114
255
2
110
254
1
103
231
12
94
210
5
70
234
7
74
225
4
74
204
0
61
198
3
65
207
14
75
204
7
69
183
0
51
171
0
47
166
7
52
178
8
59
184
8
60
188
5
61
193
1
61
193
0
61
197
1
66
198
2
71
198
5
72
201
4
83
222
1
86
236
0
91
213
0
86
156
15
75
204
113
159
250
171
213
239
135
184
187
143
174
242
224
241
255
254
250
255
254
251
253
254
255
252
255
255
255
251
255
254
241
253
144
46
93
130
0
54
103
7
27
104
0
43
162
1
85
190
0
75
159
0
38
125
5
30
133
0
38
229
12
110
242
3
119
247
6
124
255
1
125
255
0
120
241
5
106
171
15
74
153
0
41
224
5
63
241
5
79
223
1
70
214
2
69
201
0
57
200
1
54
219
9
76
195
1
62
171
0
48
155
0
31
170
1
43
191
3
59
204
8
69
203
2
68
195
0
65
197
0
69
205
6
82
212
5
90
222
6
100
250
3
110
245
0
108
221
74
150
247
251
255
226
254
252
236
253
248
254
235
252
245
229
246
255
253
253
254
254
253
250
254
254
250
255
255
255
250
255
255
238
254
108
17
53
150
29
78
139
40
66
140
61
97
190
64
124
223
17
98
212
16
78
149
28
58
137
7
47
219
8
84
255
4
128
249
7
123
232
10
115
240
2
96
222
0
66
151
0
37
121
0
19
174
9
51
237
6
81
225
3
78
226
3
78
224
2
69
185
0
42
163
3
41
204
20
75
220
2
69
197
0
49
174
1
35
158
1
34
176
10
58
204
5
71
227
1
79
216
2
87
172
2
73
177
2
56
205
11
83
242
5
112
250
7
131
238
16
132
251
167
222
246
255
253
254
241
245
255
244
255
246
238
246
255
251
254
254
254
254
249
255
254
248
255
254
254
251
253
255
241
252
223
180
198
231
185
206
255
223
234
255
246
251
251
231
238
250
187
212
255
182
220
150
57
94
114
1
44
166
9
65
203
1
94
187
4
95
186
3
89
215
0
78
228
1
65
179
0
38
124
0
19
124
3
32
217
5
76
223
9
88
234
0
91
234
0
80
178
0
50
106
0
15
140
4
37
217
3
73
223
8
77
218
0
68
192
1
57
155
0
47
179
11
67
208
2
74
219
8
92
198
21
93
165
6
45
171
0
43
228
0
99
231
10
132
246
9
141
230
57
151
242
229
243
255
245
250
255
255
255
243
244
243
255
250
254
255
252
254
253
255
254
249
255
254
250
255
255
250
253
253
252
252
253
252
246
248
231
255
252
253
255
255
247
255
255
218
255
249
235
242
243
135
39
76
159
0
56
152
0
48
109
4
56
168
8
89
220
0
107
248
2
110
232
7
89
184
4
54
129
1
27
101
1
19
171
0
50
223
21
101
241
5
108
239
0
98
192
6
75
108
5
29
98
4
23
130
0
31
186
7
82
240
14
105
235
5
92
172
0
53
171
9
64
180
11
61
206
26
84
227
60
116
161
13
62
214
13
94
217
1
84
221
7
122
248
6
136
241
13
116
238
183
211
241
255
250
255
255
255
244
244
244
254
253
254
255
253
254
255
253
254
253
253
253
245
251
249
237
252
248
235
254
253
233
255
255
244
254
250
255
236
250
255
246
254
231
255
254
245
241
250
193
44
100
209
0
67
184
0
57
127
10
57
231
13
108
255
0
123
255
1
125
219
7
96
175
6
61
126
0
27
92
3
18
131
0
31
187
7
79
244
5
120
248
0
118
214
11
101
121
0
36
95
7
20
101
7
22
119
0
46
192
18
95
230
38
114
181
2
63
188
0
57
217
1
73
185
6
66
220
100
151
224
111
163
202
11
95
249
1
109
220
21
126
232
60
157
236
78
158
253
221
239
251
254
250
255
255
255
244
244
244
247
255
254
252
255
254
255
252
254
255
251
254
254
252
254
252
254
254
244
254
252
240
255
254
243
255
251
255
248
254
255
248
253
252
255
255
255
241
252
203
98
138
172
24
79
173
34
85
186
54
100
245
11
109
255
0
120
234
5
117
178
30
96
154
25
66
122
1
26
109
1
22
123
6
37
150
0
51
231
11
120
247
6
128
221
8
105
159
1
49
125
0
22
121
7
28
91
0
24
136
25
61
253
152
191
204
80
127
189
9
76
226
0
87
217
7
100
177
23
103
242
138
207
221
93
164
201
3
96
237
109
185
255
223
255
254
236
254
241
254
255
255
250
251
255
255
255
244
244
244
243
255
254
249
255
254
255
253
254
255
250
254
255
248
254
255
248
254
255
250
254
255
251
254
237
255
252
235
255
254
245
255
254
255
249
255
255
246
255
249
232
242
244
220
234
254
230
246
255
233
251
238
114
169
206
34
111
158
44
99
119
62
82
160
91
103
123
9
34
133
0
32
120
11
39
158
4
66
184
0
85
202
5
107
202
14
98
190
2
66
167
0
39
143
2
30
112
17
30
99
0
10
186
104
122
255
241
253
230
183
209
198
59
130
248
36
147
243
7
130
222
41
127
255
229
253
228
154
197
240
206
229
254
251
255
243
255
255
221
255
254
248
254
253
255
255
255
244
244
244
251
255
254
252
255
254
254
254
254
254
253
254
255
251
254
255
249
254
255
248
254
255
248
254
255
251
252
244
255
254
252
254
254
255
244
255
255
241
255
253
255
255
251
255
255
255
248
255
248
254
246
251
245
250
168
130
143
90
60
60
102
94
74
212
191
172
118
36
49
125
0
32
119
5
35
158
11
69
159
12
84
187
78
135
242
143
191
179
16
71
189
4
66
170
6
61
122
2
23
142
2
30
142
41
59
236
227
224
232
255
255
255
244
255
240
127
198
248
57
160
229
86
155
248
242
252
255
255
255
249
253
252
238
255
250
252
254
250
239
254
253
238
255
255
255
255
255
244
244
244
255
250
254
255
252
254
253
255
254
247
255
254
247
255
254
249
254
254
254
253
254
255
252
254
255
247
252
254
254
254
249
255
254
248
253
255
248
253
255
244
254
255
249
254
255
255
248
255
251
252
249
235
242
235
107
103
91
96
59
41
138
111
75
247
244
210
153
115
111
108
3
43
124
0
34
141
3
53
200
105
150
250
233
244
250
229
236
174
63
97
165
2
65
159
4
71
148
0
43
164
0
51
132
16
48
229
206
210
238
255
248
249
249
252
255
248
255
251
235
251
248
232
246
236
255
254
255
240
248
247
248
239
222
255
241
255
249
245
255
243
254
252
251
255
255
255
255
244
244
244
254
251
254
254
253
254
253
254
254
251
254
254
250
254
254
251
254
254
253
254
254
254
254
254
254
253
254
253
254
254
250
254
253
246
254
253
245
254
253
249
254
255
252
254
255
254
254
255
254
243
244
216
216
201
92
82
53
96
72
42
165
145
120
252
250
232
255
255
255
241
218
230
150
95
112
142
78
102
255
235
249
248
250
250
246
255
253
235
193
207
144
20
65
164
2
62
182
8
83
183
0
72
153
1
58
224
181
206
255
253
255
253
254
254
249
252
252
238
253
252
243
254
254
249
255
255
255
241
247
252
252
248
242
254
248
255
252
251
254
248
254
254
251
254
255
255
255
244
244
244
254
254
254
254
254
254
254
254
254
254
254
254
254
254
254
254
254
254
254
254
254
254
254
254
254
254
255
254
254
254
254
254
253
255
254
252
255
254
253
254
254
255
254
253
255
254
253
255
255
255
255
151
144
122
75
70
34
96
90
55
205
199
182
255
254
254
252
255
255
247
255
255
255
255
255
255
253
255
255
248
254
248
252
251
243
255
255
255
255
255
221
141
171
161
5
58
176
0
76
210
3
94
182
0
78
224
163
203
254
254
255
251
255
255
255
252
250
255
253
250
255
254
253
254
254
254
254
255
255
254
254
254
255
254
254
254
254
254
254
254
254
254
254
254
255
255
255
244
244
244
254
254
254
254
254
254
254
254
254
254
254
254
254
254
254
254
254
254
254
254
254
254
254
254
254
254
254
254
254
254
254
254
254
254
254
254
254
254
254
254
254
254
254
254
254
255
255
255
242
239
231
77
70
47
81
76
40
115
110
78
251
246
231
253
252
252
252
254
255
249
255
255
250
254
254
255
253
254
255
249
252
248
253
252
239
255
255
249
254
253
255
238
253
219
125
161
168
2
72
205
4
89
188
14
87
233
174
210
255
254
255
252
255
255
255
255
250
250
255
251
253
254
254
254
254
254
254
254
254
254
254
254
254
254
254
254
254
254
254
254
254
254
254
254
255
255
255
244
244
244
254
254
254
254
254
254
254
254
254
254
254
254
254
254
254
254
254
254
254
254
254
254
254
254
254
254
252
254
254
253
254
254
254
254
254
254
254
254
255
254
254
254
254
255
251
255
255
255
172
164
148
65
59
33
80
76
41
184
178
150
255
255
248
254
253
254
251
254
255
249
255
252
243
255
252
250
252
252
254
250
252
250
253
252
240
254
253
243
254
253
250
244
247
255
236
251
220
102
158
177
20
87
176
39
97
242
207
228
254
253
255
253
254
255
255
254
252
247
255
250
253
254
254
254
254
254
254
254
254
254
254
254
254
254
254
254
254
254
254
254
254
254
254
254
255
255
255
244
244
244
254
254
254
254
254
254
254
254
254
254
254
254
254
254
254
254
254
254
254
254
254
254
254
254
254
254
251
254
254
253
254
254
255
254
253
255
253
253
254
254
255
251
252
254
246
254
255
245
102
93
69
82
76
45
95
91
57
232
231
207
255
255
251
255
253
255
253
254
255
251
255
250
247
251
250
253
251
252
255
247
252
255
249
253
249
254
252
243
252
250
251
255
255
252
250
251
255
241
255
233
157
196
210
151
183
253
242
252
248
255
255
255
251
255
255
250
252
251
255
252
253
254
254
254
254
254
254
254
254
254
254
254
254
254
254
254
254
254
254
254
254
254
254
254
255
255
255
244
244
244
254
254
254
254
254
254
254
254
254
254
254
254
254
254
254
254
254
254
254
254
254
254
254
254
254
255
249
254
255
252
254
253
255
253
252
255
251
251
253
248
249
243
255
255
244
195
198
180
74
63
32
84
77
42
142
140
107
252
252
235
254
254
253
254
252
255
254
253
255
254
255
248
255
251
253
255
250
254
255
248
254
255
249
254
255
251
254
255
253
254
251
255
254
247
255
254
244
255
255
255
250
255
255
250
255
239
255
254
242
255
255
255
249
254
255
248
254
253
254
252
253
254
254
254
254
254
254
254
254
254
254
254
254
254
254
254
254
254
254
254
254
254
254
254
255
255
255
244
244
244
254
254
254
254
254
254
254
254
254
254
254
254
254
254
254
254
254
254
254
254
254
254
254
254
254
255
248
254
255
252
254
253
255
254
253
255
253
253
254
251
252
246
250
251
235
127
131
107
82
69
33
94
88
49
208
207
175
252
252
238
254
254
255
254
252
255
254
253
254
255
254
247
255
249
253
255
250
254
255
252
254
255
251
254
255
251
254
255
251
254
254
254
254
246
255
254
235
255
255
250
253
255
250
252
255
235
255
254
242
255
255
255
247
254
255
248
254
247
255
254
252
254
254
254
254
254
254
254
254
254
254
254
254
254
254
254
254
254
254
254
254
254
254
254
255
255
255
244
244
244
254
254
254
254
254
254
254
254
254
254
254
254
254
254
254
254
254
254
254
254
254
254
254
255
254
255
246
254
255
252
254
253
255
254
253
255
251
251
252
255
255
249
223
226
207
86
91
63
90
76
36
117
109
67
235
234
202
252
254
242
252
253
255
253
253
255
254
253
253
255
254
245
255
251
253
253
254
254
246
255
254
246
255
254
253
254
254
255
252
254
255
253
254
249
255
254
244
254
254
255
251
255
254
252
255
239
255
254
247
255
255
255
246
254
255
251
254
235
255
254
251
254
254
254
254
254
254
254
254
254
254
254
254
254
254
254
254
254
254
254
254
254
254
254
255
255
255
244
244
244
254
254
254
254
254
254
254
254
254
254
254
254
255
255
255
255
255
255
255
255
255
255
255
255
255
252
252
255
254
253
253
255
252
253
255
254
253
253
255
255
255
253
192
189
169
68
66
31
93
88
35
156
153
116
252
252
236
254
254
252
253
254
254
254
254
252
254
254
253
255
253
252
254
254
254
253
254
254
250
254
254
251
254
254
254
255
255
255
255
255
255
255
255
253
255
255
253
254
254
254
252
254
254
252
254
251
254
254
253
254
254
254
252
254
254
254
254
248
254
254
253
254
254
254
254
254
254
254
254
254
254
254
254
254
254
254
254
254
254
254
254
254
254
254
255
255
255
244
244
244
